<?xml version="1.0" encoding="UTF-8" standalone="no"?>
<!DOCTYPE svg PUBLIC "-//W3C//DTD SVG 1.1//EN"
 "http://www.w3.org/Graphics/SVG/1.1/DTD/svg11.dtd">
<!-- Generated by graphviz version 2.46.0 (20210119.1425)
 -->
<!-- Title: dependencies Pages: 1 -->
<svg width="623pt" height="284pt"
 viewBox="0.00 0.00 623.00 284.00" xmlns="http://www.w3.org/2000/svg" xmlns:xlink="http://www.w3.org/1999/xlink">
<g id="graph0" class="graph" transform="scale(1 1) rotate(0) translate(4 280)">
<title>dependencies</title>
<polygon fill="white" stroke="transparent" points="-4,4 -4,-280 619,-280 619,4 -4,4"/>
<text text-anchor="start" x="286.51" y="-42.4" font-family="sans-serif" font-weight="bold" font-size="14.00">Legend</text>
<polygon fill="#ffffb3" stroke="transparent" points="73.5,-10 73.5,-30 93.5,-30 93.5,-10 73.5,-10"/>
<text text-anchor="start" x="97.13" y="-15.4" font-family="sans-serif" font-size="14.00"> &#160;Declarations</text>
<polygon fill="#8dd3c7" stroke="transparent" points="186.5,-10 186.5,-30 206.5,-30 206.5,-10 186.5,-10"/>
<text text-anchor="start" x="210.23" y="-15.4" font-family="sans-serif" font-size="14.00"> &#160;Module</text>
<polygon fill="#80b1d3" stroke="transparent" points="272.5,-10 272.5,-30 292.5,-30 292.5,-10 272.5,-10"/>
<text text-anchor="start" x="296.28" y="-15.4" font-family="sans-serif" font-size="14.00"> &#160;Bootstrap</text>
<polygon fill="#fdb462" stroke="transparent" points="369.5,-10 369.5,-30 389.5,-30 389.5,-10 369.5,-10"/>
<text text-anchor="start" x="393.17" y="-15.4" font-family="sans-serif" font-size="14.00"> &#160;Providers</text>
<polygon fill="#fb8072" stroke="transparent" points="465.5,-10 465.5,-30 485.5,-30 485.5,-10 465.5,-10"/>
<text text-anchor="start" x="489.23" y="-15.4" font-family="sans-serif" font-size="14.00"> &#160;Exports</text>
<g id="clust1" class="cluster">
<title>cluster_AppModule</title>
<polygon fill="none" stroke="black" stroke-dasharray="1,5" points="8,-70 8,-268 607,-268 607,-70 8,-70"/>
</g>
<g id="clust2" class="cluster">
<title>cluster_AppModule_declarations</title>
<polygon fill="none" stroke="black" points="168,-78 168,-130 599,-130 599,-78 168,-78"/>
</g>
<g id="clust6" class="cluster">
<title>cluster_AppModule_imports</title>
<polygon fill="none" stroke="black" points="16,-78 16,-130 160,-130 160,-78 16,-78"/>
</g>
<g id="clust8" class="cluster">
<title>cluster_AppModule_bootstrap</title>
<polygon fill="none" stroke="black" points="253,-208 253,-260 377,-260 377,-208 253,-208"/>
</g>
<!-- AppComponent -->
<g id="node1" class="node">
<title>AppComponent</title>
<polygon fill="#ffffb3" stroke="black" points="590.94,-122 485.06,-122 485.06,-86 590.94,-86 590.94,-122"/>
<text text-anchor="middle" x="538" y="-99.8" font-family="Times,serif" font-size="14.00">AppComponent</text>
</g>
<!-- AppModule -->
<g id="node4" class="node">
<title>AppModule</title>
<polygon fill="#8dd3c7" stroke="black" points="356.66,-187 353.66,-191 332.66,-191 329.66,-187 273.34,-187 273.34,-151 356.66,-151 356.66,-187"/>
<text text-anchor="middle" x="315" y="-164.8" font-family="Times,serif" font-size="14.00">AppModule</text>
</g>
<!-- AppComponent&#45;&gt;AppModule -->
<g id="edge1" class="edge">
<title>AppComponent&#45;&gt;AppModule</title>
<path fill="none" stroke="black" d="M538,-122.11C538,-141.34 538,-169 538,-169 538,-169 366.68,-169 366.68,-169"/>
<polygon fill="black" stroke="black" points="366.68,-165.5 356.68,-169 366.68,-172.5 366.68,-165.5"/>
</g>
<!-- CSVReaderComponent -->
<g id="node2" class="node">
<title>CSVReaderComponent</title>
<polygon fill="#ffffb3" stroke="black" points="467.2,-122 318.8,-122 318.8,-86 467.2,-86 467.2,-122"/>
<text text-anchor="middle" x="393" y="-99.8" font-family="Times,serif" font-size="14.00">CSVReaderComponent</text>
</g>
<!-- CSVReaderComponent&#45;&gt;AppModule -->
<g id="edge2" class="edge">
<title>CSVReaderComponent&#45;&gt;AppModule</title>
<path fill="none" stroke="black" d="M337.86,-122.11C337.86,-122.11 337.86,-140.99 337.86,-140.99"/>
<polygon fill="black" stroke="black" points="334.36,-140.99 337.86,-150.99 341.36,-140.99 334.36,-140.99"/>
</g>
<!-- TrackerComponent -->
<g id="node3" class="node">
<title>TrackerComponent</title>
<polygon fill="#ffffb3" stroke="black" points="300.35,-122 175.65,-122 175.65,-86 300.35,-86 300.35,-122"/>
<text text-anchor="middle" x="238" y="-99.8" font-family="Times,serif" font-size="14.00">TrackerComponent</text>
</g>
<!-- TrackerComponent&#45;&gt;AppModule -->
<g id="edge3" class="edge">
<title>TrackerComponent&#45;&gt;AppModule</title>
<path fill="none" stroke="black" d="M286.8,-122.11C286.8,-122.11 286.8,-140.99 286.8,-140.99"/>
<polygon fill="black" stroke="black" points="283.3,-140.99 286.8,-150.99 290.3,-140.99 283.3,-140.99"/>
</g>
<!-- AppComponent  -->
<g id="node6" class="node">
<title>AppComponent </title>
<polygon fill="#80b1d3" stroke="black" points="369.44,-252 260.56,-252 260.56,-216 369.44,-216 369.44,-252"/>
<text text-anchor="middle" x="315" y="-229.8" font-family="Times,serif" font-size="14.00">AppComponent </text>
</g>
<!-- AppModule&#45;&gt;AppComponent  -->
<g id="edge5" class="edge">
<title>AppModule&#45;&gt;AppComponent </title>
<path fill="none" stroke="black" stroke-dasharray="1,5" d="M315,-187.11C315,-187.11 315,-205.99 315,-205.99"/>
<polygon fill="black" stroke="black" points="311.5,-205.99 315,-215.99 318.5,-205.99 311.5,-205.99"/>
</g>
<!-- AppRoutingModule -->
<g id="node5" class="node">
<title>AppRoutingModule</title>
<polygon fill="#8dd3c7" stroke="black" points="152.27,-122 149.27,-126 128.27,-126 125.27,-122 23.73,-122 23.73,-86 152.27,-86 152.27,-122"/>
<text text-anchor="middle" x="88" y="-99.8" font-family="Times,serif" font-size="14.00">AppRoutingModule</text>
</g>
<!-- AppRoutingModule&#45;&gt;AppModule -->
<g id="edge4" class="edge">
<title>AppRoutingModule&#45;&gt;AppModule</title>
<path fill="none" stroke="black" d="M88,-122.11C88,-141.34 88,-169 88,-169 88,-169 263.1,-169 263.1,-169"/>
<polygon fill="black" stroke="black" points="263.1,-172.5 273.1,-169 263.1,-165.5 263.1,-172.5"/>
</g>
</g>
</svg>
